<svg id="OutlineExpand" enable-background="new 0 0 64 64" height="512" viewBox="0 0 64 64" width="512" xmlns="http://www.w3.org/2000/svg"><path d="m3 63h58c.553 0 1-.447 1-1v-60c0-.553-.447-1-1-1h-58c-.553 0-1 .447-1 1v60c0 .553.447 1 1 1zm1-60h56v58h-56z"/><path d="m11 5h-4c-.553 0-1 .447-1 1v4c0 .553.447 1 1 1h4c.553 0 1-.447 1-1v-4c0-.553-.447-1-1-1zm-1 4h-2v-2h2z"/><path d="m11 13h-4c-.553 0-1 .447-1 1v4c0 .553.447 1 1 1h4c.553 0 1-.447 1-1v-4c0-.553-.447-1-1-1zm-1 4h-2v-2h2z"/><path d="m11 21h-4c-.553 0-1 .447-1 1v4c0 .553.447 1 1 1h4c.553 0 1-.447 1-1v-4c0-.553-.447-1-1-1zm-1 4h-2v-2h2z"/><path d="m11 29h-4c-.553 0-1 .447-1 1v4c0 .553.447 1 1 1h4c.553 0 1-.447 1-1v-4c0-.553-.447-1-1-1zm-1 4h-2v-2h2z"/><path d="m11 37h-4c-.553 0-1 .447-1 1v4c0 .553.447 1 1 1h4c.553 0 1-.447 1-1v-4c0-.553-.447-1-1-1zm-1 4h-2v-2h2z"/><path d="m11 45h-4c-.553 0-1 .447-1 1v4c0 .553.447 1 1 1h4c.553 0 1-.447 1-1v-4c0-.553-.447-1-1-1zm-1 4h-2v-2h2z"/><path d="m11 53h-4c-.553 0-1 .447-1 1v4c0 .553.447 1 1 1h4c.553 0 1-.447 1-1v-4c0-.553-.447-1-1-1zm-1 4h-2v-2h2z"/><path d="m57 5h-4c-.553 0-1 .447-1 1v4c0 .553.447 1 1 1h4c.553 0 1-.447 1-1v-4c0-.553-.447-1-1-1zm-1 4h-2v-2h2z"/><path d="m57 13h-4c-.553 0-1 .447-1 1v4c0 .553.447 1 1 1h4c.553 0 1-.447 1-1v-4c0-.553-.447-1-1-1zm-1 4h-2v-2h2z"/><path d="m57 21h-4c-.553 0-1 .447-1 1v4c0 .553.447 1 1 1h4c.553 0 1-.447 1-1v-4c0-.553-.447-1-1-1zm-1 4h-2v-2h2z"/><path d="m57 29h-4c-.553 0-1 .447-1 1v4c0 .553.447 1 1 1h4c.553 0 1-.447 1-1v-4c0-.553-.447-1-1-1zm-1 4h-2v-2h2z"/><path d="m57 37h-4c-.553 0-1 .447-1 1v4c0 .553.447 1 1 1h4c.553 0 1-.447 1-1v-4c0-.553-.447-1-1-1zm-1 4h-2v-2h2z"/><path d="m57 45h-4c-.553 0-1 .447-1 1v4c0 .553.447 1 1 1h4c.553 0 1-.447 1-1v-4c0-.553-.447-1-1-1zm-1 4h-2v-2h2z"/><path d="m57 53h-4c-.553 0-1 .447-1 1v4c0 .553.447 1 1 1h4c.553 0 1-.447 1-1v-4c0-.553-.447-1-1-1zm-1 4h-2v-2h2z"/><path d="m42 20h-20c-2.757 0-5 2.243-5 5v14c0 2.757 2.243 5 5 5h20c2.757 0 5-2.243 5-5v-14c0-2.757-2.243-5-5-5zm3 19c0 1.654-1.346 3-3 3h-20c-1.654 0-3-1.346-3-3v-14c0-1.654 1.346-3 3-3h20c1.654 0 3 1.346 3 3z"/><path d="m38.414 31.09-11-5c-.31-.142-.669-.114-.955.069-.286.185-.459.501-.459.841v10c0 .34.173.656.459.841.164.105.352.159.541.159.141 0 .282-.029.414-.09l11-5c.357-.162.586-.517.586-.91s-.229-.748-.586-.91zm-10.414 4.357v-6.895l7.583 3.448z"/></svg>