<?xml version="1.0" encoding="iso-8859-1"?>
<!-- Generator: Adobe Illustrator 19.0.0, SVG Export Plug-In . SVG Version: 6.00 Build 0)  -->
<svg xmlns="http://www.w3.org/2000/svg" xmlns:xlink="http://www.w3.org/1999/xlink" version="1.1" id="Layer_1" x="0px" y="0px" viewBox="0 0 511.944 511.944" style="enable-background:new 0 0 511.944 511.944;" xml:space="preserve" width="512" height="512">
<g id="XMLID_1669_">
	<g id="XMLID_1640_">
		<g id="XMLID_1641_">
			<g id="XMLID_1642_">
				<path id="XMLID_1661_" d="M391.705,93.115h-59.374c-28.398,0-55.272,9.835-76.621,27.549      c-0.891-16.107-4.824-32.182-11.965-47.327c-2.355-4.996-8.316-7.136-13.31-4.78c-4.996,2.355-7.136,8.314-4.78,13.31      c19.377,41.095,10.799,90.302-21.345,122.445c-20.398,20.398-47.519,31.633-76.367,31.633c-19.325,0-37.871-5.048-54.144-14.509      c-0.142-0.089-0.286-0.17-0.431-0.252c-7.856-4.616-15.179-10.259-21.792-16.873c-42.109-42.109-42.109-110.625,0-152.734      c31.932-31.934,80.899-40.624,121.845-21.626c5.008,2.323,10.956,0.147,13.28-4.862c2.324-5.01,0.147-10.956-4.862-13.28      C133.308-10.705,75.277-0.41,37.432,37.435c-49.907,49.907-49.907,131.112,0,181.02c5.166,5.167,10.699,9.832,16.536,13.983      c-6.517,10.271-10.026,22.211-10.026,34.581v140.228c0,35.64,28.995,64.634,64.634,64.634h54.133l37.137,37.137      c1.913,1.913,4.47,2.929,7.073,2.929c1.287,0,2.585-0.248,3.821-0.76c3.736-1.546,6.173-5.189,6.176-9.233l0.021-30.072h88.32      c35.64,0,64.634-28.994,64.634-64.634v-73.654h21.812c10.938,0,21.732-1.465,32.174-4.359l29.231,29.21      c1.913,1.912,4.469,2.927,7.07,2.927c1.289,0,2.589-0.249,3.827-0.762c3.736-1.549,6.171-5.194,6.171-9.238v-46.919      c26.603-22.902,41.763-55.83,41.763-91.097C511.942,147.054,458.004,93.115,391.705,93.115z M349.893,407.245      c0,24.611-20.023,44.634-44.634,44.634h-98.313c-5.52,0-9.996,4.473-10,9.993l-0.011,15.947l-20.09-20.09      c-1.58-3.462-5.071-5.851-9.101-5.851h-59.167c-24.611,0-44.634-20.022-44.634-44.634V267.018      c0-8.713,2.526-17.115,7.201-24.301c17.437,8.649,36.766,13.227,56.799,13.227c32.287,0,62.746-11.879,86.396-33.561h90.921      c24.611,0,44.634,20.022,44.634,44.634V407.245z M453.962,291.911c-2.39,1.897-3.783,4.781-3.783,7.833v27.494l-16.408-16.396      c-2.68-2.68-6.646-3.612-10.241-2.41c-10.233,3.424-20.941,5.159-31.825,5.159h-21.812v-43.207h42.024c5.523,0,10-4.478,10-10      s-4.477-10-10-10h-44.205c-2.844-10.667-8.357-20.248-15.772-28h59.977c5.523,0,10-4.478,10-10s-4.477-10-10-10H305.259h-73.217      c11.028-15.448,18.346-33.001,21.714-51.278c0.005-0.007,0.011-0.012,0.016-0.019c19.155-24.132,47.789-37.972,78.558-37.972      h59.374c55.271,0,100.237,44.966,100.237,100.237C491.942,244.12,478.099,272.754,453.962,291.911z"/>
				<path id="XMLID_1660_" d="M286.918,283.189h-160c-5.523,0-10,4.478-10,10s4.477,10,10,10h160c5.523,0,10-4.478,10-10      S292.441,283.189,286.918,283.189z"/>
				<path id="XMLID_1658_" d="M286.918,331.189h-160c-5.523,0-10,4.478-10,10s4.477,10,10,10h160c5.523,0,10-4.478,10-10      S292.441,331.189,286.918,331.189z"/>
				<path id="XMLID_1657_" d="M286.922,379.194c-2.64,0-5.21,1.06-7.08,2.92c-1.86,1.87-2.92,4.439-2.92,7.07      c0,2.64,1.06,5.21,2.92,7.069c1.87,1.87,4.44,2.931,7.08,2.931c2.63,0,5.21-1.061,7.07-2.931c1.86-1.859,2.92-4.43,2.92-7.069      c0-2.631-1.06-5.2-2.92-7.07C292.132,380.254,289.552,379.194,286.922,379.194z"/>
				<path id="XMLID_1651_" d="M246.918,379.189h-120c-5.523,0-10,4.478-10,10s4.477,10,10,10h120c5.523,0,10-4.478,10-10      S252.441,379.189,246.918,379.189z"/>
				<path id="XMLID_1650_" d="M411.918,154.384H305.259c-5.523,0-10,4.478-10,10s4.477,10,10,10h106.659c5.523,0,10-4.478,10-10      S417.441,154.384,411.918,154.384z"/>
				<path id="XMLID_1648_" d="M204.504,138.04h7.263c5.523,0,10-4.478,10-10s-4.477-10-10-10h-7.263c-5.523,0-10,4.478-10,10      S198.981,138.04,204.504,138.04z"/>
				<path id="XMLID_1647_" d="M44.117,117.849c-5.523,0-10,4.478-10,10s4.477,10,10,10h7.263c5.523,0,10-4.478,10-10      s-4.477-10-10-10H44.117z"/>
				<path id="XMLID_1646_" d="M117.846,204.506v7.264c0,5.522,4.477,10,10,10s10-4.478,10-10v-7.264c0-5.522-4.477-10-10-10      S117.846,198.983,117.846,204.506z"/>
				<path id="XMLID_1645_" d="M176.773,104.237c-2.413-4.968-8.395-7.038-13.364-4.629l-25.467,12.364V51.714      c0-5.522-4.477-10-10-10s-10,4.478-10,10v76.23c0,3.445,1.773,6.647,4.693,8.476c1.617,1.013,3.458,1.524,5.307,1.524      c1.49,0,2.984-0.333,4.367-1.004l39.835-19.34C177.113,115.188,179.185,109.205,176.773,104.237z"/>
				<path id="XMLID_1644_" d="M211.382,54.504c2.63,0,5.21-1.069,7.07-2.93s2.93-4.44,2.93-7.07s-1.07-5.21-2.93-7.069      c-1.86-1.86-4.44-2.931-7.07-2.931s-5.21,1.07-7.07,2.931c-1.86,1.859-2.93,4.439-2.93,7.069s1.07,5.21,2.93,7.07      C206.172,53.435,208.752,54.504,211.382,54.504z"/>
			</g>
		</g>
	</g>
</g>















</svg>
