<svg fill="#000000" xmlns="http://www.w3.org/2000/svg" viewBox="0 0 50 50" width="50px" height="50px"><path d="M 9 4 C 6.2504839 4 4 6.2504839 4 9 L 4 41 C 4 43.749516 6.2504839 46 9 46 L 41 46 C 43.749516 46 46 43.749516 46 41 L 46 9 C 46 6.2504839 43.749516 4 41 4 L 9 4 z M 9 6 L 41 6 C 42.668484 6 44 7.3315161 44 9 L 44 41 C 44 42.668484 42.668484 44 41 44 L 9 44 C 7.3315161 44 6 42.668484 6 41 L 6 9 C 6 7.3315161 7.3315161 6 9 6 z M 15 8 C 11.145851 8 8 11.145851 8 15 C 8 17.780217 9.6410419 20.184382 12 21.3125 L 12 28.6875 C 9.6410419 29.815618 8 32.219783 8 35 C 8 38.854149 11.145851 42 15 42 C 17.780217 42 20.184382 40.358958 21.3125 38 L 28.6875 38 C 29.815618 40.358958 32.219783 42 35 42 C 38.854149 42 42 38.854149 42 35 C 42 32.219783 40.358958 29.815618 38 28.6875 L 38 21.3125 C 40.358958 20.184382 42 17.780217 42 15 C 42 11.145851 38.854149 8 35 8 C 32.219783 8 29.815618 9.6410419 28.6875 12 L 21.3125 12 C 20.184382 9.6410419 17.780217 8 15 8 z M 15 10 C 17.773268 10 20 12.226732 20 15 C 20 17.773268 17.773268 20 15 20 C 12.226732 20 10 17.773268 10 15 C 10 12.226732 12.226732 10 15 10 z M 35 10 C 37.773268 10 40 12.226732 40 15 C 40 17.773268 37.773268 20 35 20 C 32.226732 20 30 17.773268 30 15 C 30 12.226732 32.226732 10 35 10 z M 21.919922 14 L 28.080078 14 C 28.032701 14.327598 28 14.659679 28 15 C 28 18.854149 31.145851 22 35 22 C 35.340321 22 35.672402 21.967299 36 21.919922 L 36 28.080078 C 35.672402 28.032701 35.340321 28 35 28 C 31.145851 28 28 31.145851 28 35 C 28 35.340321 28.032701 35.672402 28.080078 36 L 21.919922 36 C 21.967299 35.672402 22 35.340321 22 35 C 22 31.145851 18.854149 28 15 28 C 14.659679 28 14.327598 28.032701 14 28.080078 L 14 21.919922 C 14.327598 21.967299 14.659679 22 15 22 C 18.854149 22 22 18.854149 22 15 C 22 14.659679 21.967299 14.327598 21.919922 14 z M 15 30 C 17.773268 30 20 32.226732 20 35 C 20 37.773268 17.773268 40 15 40 C 12.226732 40 10 37.773268 10 35 C 10 32.226732 12.226732 30 15 30 z M 35 30 C 37.773268 30 40 32.226732 40 35 C 40 37.773268 37.773268 40 35 40 C 32.226732 40 30 37.773268 30 35 C 30 32.226732 32.226732 30 35 30 z"/></svg>