<?xml version="1.0" encoding="iso-8859-1"?>
<!-- Generator: Adobe Illustrator 19.0.0, SVG Export Plug-In . SVG Version: 6.00 Build 0)  -->
<svg version="1.1" id="Capa_1" xmlns="http://www.w3.org/2000/svg" xmlns:xlink="http://www.w3.org/1999/xlink" x="0px" y="0px"
	 viewBox="0 0 512 512" style="enable-background:new 0 0 512 512;" xml:space="preserve">
<g>
	<g>
		<g>
			<path d="M496,88h-48c-4.253-0.025-8.34,1.645-11.36,4.64L409.44,120H384v-16c0-26.51-21.49-48-48-48H48C21.49,56,0,77.49,0,104
				v256c0,26.51,21.49,48,48,48h16v-32H48c-8.837,0-16-7.163-16-16V104c0-8.837,7.163-16,16-16h288c8.837,0,16,7.163,16,16v160h32
				V152h32c4.253,0.025,8.341-1.645,11.36-4.64l27.2-27.36H480v224h-25.44l-27.36-27.36l-22.56,22.56l32,32
				c2.993,3.054,7.084,4.782,11.36,4.8h48c8.837,0,16-7.163,16-16V104C512,95.163,504.837,88,496,88z"/>
			<path d="M288,216c8.837,0,16-7.163,16-16v-64c0-8.837-7.163-16-16-16H96c-8.837,0-16,7.163-16,16v64c0,8.837,7.163,16,16,16H288z
				"/>
			<path d="M304,296h-32c-17.673,0-32,14.327-32,32v96c0,17.673,14.327,32,32,32h32c35.346,0,64-28.654,64-64v-32
				C368,324.654,339.346,296,304,296z M336,392c0,17.673-14.327,32-32,32h-32v-96h32c17.673,0,32,14.327,32,32V392z"/>
			<polygon points="192,360 128,360 128,296 96,296 96,456 128,456 128,392 192,392 192,456 224,456 224,296 192,296 			"/>
		</g>
	</g>
</g>
<g>
</g>
<g>
</g>
<g>
</g>
<g>
</g>
<g>
</g>
<g>
</g>
<g>
</g>
<g>
</g>
<g>
</g>
<g>
</g>
<g>
</g>
<g>
</g>
<g>
</g>
<g>
</g>
<g>
</g>
</svg>
