<svg id="bold" enable-background="new 0 0 24 24" height="512" viewBox="0 0 24 24" width="512" xmlns="http://www.w3.org/2000/svg"><path d="m19 17v-5.06h-.81c-.43 0-.83-.11-1.19-.31v5.37h-13v-9h8.68l-.15-.26c-.52-.9-.41-2.01.21-2.8-.22-.28-.38-.6-.45-.94h-11.29c-.55 0-1 .45-1 1v2c0 .55.45 1 1 1h1v9c-.552 0-1 .448-1 1s.448 1 1 1h6.844l-2.634 3.386c-.339.436-.26 1.064.176 1.403.434.337 1.063.26 1.403-.176l2.71-3.485 2.71 3.485c.339.435.968.514 1.403.176.436-.339.515-.968.176-1.403l-2.632-3.386h6.844c.552 0 1-.448 1-1s-.448-1-1-1z"/><path d="m22.703 5.413c.02-.155.047-.309.047-.469 0-.161-.028-.314-.047-.469l.901-.682c.201-.152.257-.43.131-.649l-.809-1.401c-.126-.218-.395-.309-.627-.211l-1.037.438c-.253-.193-.522-.363-.819-.487l-.138-1.101c-.031-.25-.244-.438-.496-.438h-1.617c-.252 0-.465.188-.496.438l-.138 1.101c-.297.124-.567.295-.819.487l-1.037-.437c-.232-.098-.501-.008-.627.211l-.809 1.401c-.126.218-.07.496.131.649l.901.682c-.02.155-.047.309-.047.469 0 .161.028.314.047.469l-.901.682c-.201.152-.257.43-.131.649l.809 1.401c.126.218.395.309.627.211l1.037-.438c.253.193.522.363.819.487l.138 1.101c.031.25.244.438.496.438h1.617c.252 0 .465-.188.496-.438l.138-1.101c.297-.124.567-.295.819-.487l1.037.437c.232.098.501.008.627-.211l.809-1.401c.126-.218.07-.496-.131-.649zm-3.703 1.53c-1.105 0-2-.895-2-2s.895-2 2-2 2 .895 2 2-.895 2-2 2z"/></svg>